<svg id="Capa_1" data-name="Capa 1" xmlns="http://www.w3.org/2000/svg" viewBox="0 0 225 38"><title>AD</title><path d="M25,27.89a.57.57,0,0,1,0,.51.7.7,0,0,1-.36.38.66.66,0,0,1-.55,0,.58.58,0,0,1-.34-.36L20,19.8H6.47L2.74,28.44a.58.58,0,0,1-.34.36.66.66,0,0,1-.55,0,.7.7,0,0,1-.36-.38.61.61,0,0,1,0-.51L12.57,2.33a.7.7,0,0,1,.68-.46.69.69,0,0,1,.64.51ZM7.06,18.44H19.4L13.25,4.24Z"/><path d="M26.56,27.93s0,0,0,.05h-.08S26.53,27.93,26.56,27.93Zm0-.12v0Zm14.88.38a.64.64,0,0,1-.21.49.72.72,0,0,1-.47.19.6.6,0,0,1-.68-.68V15.73a6.08,6.08,0,0,0-.46-2.38,5.59,5.59,0,0,0-1.3-1.9,6.15,6.15,0,0,0-1.9-1.27,5.78,5.78,0,0,0-2.31-.47,6,6,0,0,0-2.36.47,6.06,6.06,0,0,0-1.88,1.25,5.87,5.87,0,0,0-1.29,1.84,5.62,5.62,0,0,0-.53,2.25V28.19a.6.6,0,0,1-.68.68.72.72,0,0,1-.47-.19.64.64,0,0,1-.21-.49V9a.64.64,0,0,1,.21-.49.67.67,0,0,1,.47-.19.6.6,0,0,1,.68.68v2.58A6.81,6.81,0,0,1,31,9a8.19,8.19,0,0,1,3.12-.68A7.07,7.07,0,0,1,37,8.9a7.89,7.89,0,0,1,2.33,1.59,7.41,7.41,0,0,1,2.14,5.24Z"/><path d="M64.11,26.92a10,10,0,0,1-3,7.22,10.62,10.62,0,0,1-3.26,2.19,10,10,0,0,1-4,.8A9.85,9.85,0,0,1,50,36.35a11.4,11.4,0,0,1-3.2-2,.57.57,0,0,1-.19-.48.73.73,0,0,1,.23-.49.58.58,0,0,1,.49-.19.73.73,0,0,1,.48.23,9.47,9.47,0,0,0,2.76,1.74,8.6,8.6,0,0,0,3.31.64,8.42,8.42,0,0,0,3.3-.66,9.73,9.73,0,0,0,2.78-1.76,8.77,8.77,0,0,0,2.82-5.85v-4a11.35,11.35,0,0,1-3.69,3.83,9.36,9.36,0,0,1-5.21,1.51,10,10,0,0,1-4-.81,10.3,10.3,0,0,1-5.49-5.47,10,10,0,0,1-.8-4,9.92,9.92,0,0,1,.82-4,10.7,10.7,0,0,1,2.23-3.28,10.3,10.3,0,0,1,3.26-2.2,10.29,10.29,0,0,1,9.22.61,10.22,10.22,0,0,1,3.67,3.75V9a.68.68,0,1,1,1.35,0Zm-1.35-8.65A8.91,8.91,0,0,0,62,14.94,9.21,9.21,0,0,0,60,12.21a8.85,8.85,0,0,0-2.79-1.86,8.39,8.39,0,0,0-3.37-.68,8.48,8.48,0,0,0-3.46.72,9.16,9.16,0,0,0-4.77,4.77,8.63,8.63,0,0,0,0,6.9,9.27,9.27,0,0,0,1.93,2.84,9,9,0,0,0,2.84,1.91,8.88,8.88,0,0,0,6.91,0,9,9,0,0,0,2.84-1.91,8.88,8.88,0,0,0,1.91-2.84,8.72,8.72,0,0,0,.7-3.45Z"/><path d="M66.66,4.24a1.12,1.12,0,0,1,.31-.8,1,1,0,0,1,.79-.34,1.07,1.07,0,0,1,.8.34,1.07,1.07,0,0,1,.34.8,1,1,0,0,1-.34.79,1.12,1.12,0,0,1-.8.31,1.06,1.06,0,0,1-1.1-1.1ZM67.21,9a.68.68,0,1,1,1.35,0v19.2a.68.68,0,1,1-1.35,0Z"/><path d="M86.87,25.14a.69.69,0,1,1,1,.93,11.16,11.16,0,0,1-3.2,2,9.69,9.69,0,0,1-3.88.79,9.87,9.87,0,0,1-4-.81,10.26,10.26,0,0,1-5.47-5.47,9.86,9.86,0,0,1-.8-4,10.08,10.08,0,0,1,.8-4,10.24,10.24,0,0,1,5.47-5.48,9.87,9.87,0,0,1,4-.81,9.75,9.75,0,0,1,3.94.81,10.35,10.35,0,0,1,5.49,5.42,10.19,10.19,0,0,1,.87,3.94v.13a.64.64,0,0,1-.68.64H71.91a8.9,8.9,0,0,0,.87,3.24,8.5,8.5,0,0,0,2,2.6,9.32,9.32,0,0,0,2.78,1.76,8.73,8.73,0,0,0,6.61,0A9.61,9.61,0,0,0,86.87,25.14ZM80.81,9.67a8.56,8.56,0,0,0-3.3.65,9.08,9.08,0,0,0-4.71,4.37,8.45,8.45,0,0,0-.89,3.2h17.8a8.27,8.27,0,0,0-.89-3.2,9.07,9.07,0,0,0-2-2.61,9.72,9.72,0,0,0-2.75-1.76A8.47,8.47,0,0,0,80.81,9.67Z"/><path d="M149.1,15.39A13.2,13.2,0,0,1,148,20.64a13.43,13.43,0,0,1-7.19,7.17,13.37,13.37,0,0,1-5.27,1.06h-7.72a.72.72,0,0,1-.46-.19.64.64,0,0,1-.21-.49V2.55a.64.64,0,0,1,.21-.49.67.67,0,0,1,.46-.19h7.72a13.2,13.2,0,0,1,5.27,1.06,13.52,13.52,0,0,1,4.31,2.88,13.76,13.76,0,0,1,2.88,4.3A13.42,13.42,0,0,1,149.1,15.39ZM128.54,3.22V27.51h7a12,12,0,0,0,4.72-1A12.27,12.27,0,0,0,144.18,24a12.41,12.41,0,0,0,2.61-3.86,11.78,11.78,0,0,0,1-4.7,12,12,0,0,0-3.56-8.67,12,12,0,0,0-3.88-2.56,12.12,12.12,0,0,0-4.72-.94Z"/><path d="M152.53,4.24a1.13,1.13,0,0,1,.32-.8,1,1,0,0,1,.78-.34,1.16,1.16,0,0,1,1.15,1.14,1.08,1.08,0,0,1-.34.79,1.16,1.16,0,0,1-.81.31,1.06,1.06,0,0,1-.78-.31A1.1,1.1,0,0,1,152.53,4.24ZM153.08,9a.68.68,0,0,1,1.36,0v19.2a.68.68,0,1,1-1.36,0Z"/><path d="M172.75,25.14a.64.64,0,0,1,1-.05.65.65,0,0,1,.05,1,11.44,11.44,0,0,1-3.2,2,9.72,9.72,0,0,1-3.88.79,9.92,9.92,0,0,1-4-.81,10.47,10.47,0,0,1-3.26-2.2,10.35,10.35,0,0,1-2.2-3.27,9.87,9.87,0,0,1-.81-4,10.08,10.08,0,0,1,.81-4,10.27,10.27,0,0,1,5.46-5.48,9.92,9.92,0,0,1,4-.81,9.78,9.78,0,0,1,3.94.81,10.44,10.44,0,0,1,5.49,5.42,10.19,10.19,0,0,1,.87,3.94v.13a.65.65,0,0,1-.68.64H157.79a8.72,8.72,0,0,0,2.82,5.84,9.27,9.27,0,0,0,2.77,1.76,8.47,8.47,0,0,0,3.31.66,8.37,8.37,0,0,0,3.3-.64A9.66,9.66,0,0,0,172.75,25.14ZM166.69,9.67a8.64,8.64,0,0,0-3.31.65,9.11,9.11,0,0,0-4.7,4.37,8.27,8.27,0,0,0-.89,3.2h17.8a8.45,8.45,0,0,0-.89-3.2,9.26,9.26,0,0,0-2-2.61A9.91,9.91,0,0,0,170,10.32,8.42,8.42,0,0,0,166.69,9.67Z"/><path d="M200.93,26.92a10,10,0,0,1-3,7.22,10.62,10.62,0,0,1-3.26,2.19,10,10,0,0,1-4,.8,9.85,9.85,0,0,1-3.88-.78,11.4,11.4,0,0,1-3.2-2,.57.57,0,0,1-.19-.48.73.73,0,0,1,.23-.49.58.58,0,0,1,.49-.19.77.77,0,0,1,.49.23,9.3,9.3,0,0,0,2.75,1.74,8.6,8.6,0,0,0,3.31.64,8.42,8.42,0,0,0,3.3-.66,9.73,9.73,0,0,0,2.78-1.76,8.77,8.77,0,0,0,2.82-5.85v-4a11.35,11.35,0,0,1-3.69,3.83,9.36,9.36,0,0,1-5.21,1.51,10,10,0,0,1-4-.81,10.3,10.3,0,0,1-5.49-5.47,10,10,0,0,1-.8-4,9.92,9.92,0,0,1,.82-4,10.7,10.7,0,0,1,2.23-3.28,10.3,10.3,0,0,1,3.26-2.2,10.29,10.29,0,0,1,9.22.61,10.22,10.22,0,0,1,3.67,3.75V9a.68.68,0,1,1,1.35,0Zm-1.35-8.65a8.91,8.91,0,0,0-.81-3.33,9.21,9.21,0,0,0-1.93-2.73,8.85,8.85,0,0,0-2.79-1.86,8.39,8.39,0,0,0-3.37-.68,8.48,8.48,0,0,0-3.46.72,9.16,9.16,0,0,0-4.77,4.77,8.63,8.63,0,0,0,0,6.9,9.27,9.27,0,0,0,1.93,2.84,9,9,0,0,0,2.84,1.91,8.88,8.88,0,0,0,6.91,0A9,9,0,0,0,197,24.9a8.88,8.88,0,0,0,1.91-2.84,8.72,8.72,0,0,0,.7-3.45Z"/><path d="M202.71,18.61a10.08,10.08,0,0,1,.81-4A10.24,10.24,0,0,1,209,9.12a10.18,10.18,0,0,1,8,0,10.35,10.35,0,0,1,3.27,2.2,10.68,10.68,0,0,1,2.22,3.28,10.14,10.14,0,0,1,0,8A10.24,10.24,0,0,1,217,28.06a10.08,10.08,0,0,1-4,.81,9.87,9.87,0,0,1-4-.81,10.26,10.26,0,0,1-5.47-5.47A9.87,9.87,0,0,1,202.71,18.61Zm1.36,0a8.55,8.55,0,0,0,.7,3.45,8.91,8.91,0,0,0,4.75,4.75,8.85,8.85,0,0,0,6.9,0,8.88,8.88,0,0,0,2.84-1.91,9.1,9.1,0,0,0,1.93-2.84,8.63,8.63,0,0,0,0-6.9,9.16,9.16,0,0,0-4.77-4.77,8.63,8.63,0,0,0-6.9,0,9.1,9.1,0,0,0-2.84,1.93,8.88,8.88,0,0,0-1.91,2.84A8.58,8.58,0,0,0,204.07,18.61Z"/><path d="M108.5,14.65c.3-.35.5-.65.75-.89a4.08,4.08,0,0,1,4.32-1,4,4,0,0,1,2.86,3.35,3.89,3.89,0,0,1-1,3.42c-2,2.24-4.13,4.45-6.21,6.66a1,1,0,0,1-1.51,0c-2.06-2.2-4.14-4.38-6.16-6.61a4.21,4.21,0,0,1,6.1-5.81C107.94,14,108.16,14.26,108.5,14.65Z"/></svg>